<mxfile host="app.diagrams.net" modified="2024-07-26T06:24:04.457Z" agent="Mozilla/5.0 (Windows NT 10.0; Win64; x64) AppleWebKit/537.36 (KHTML, like Gecko) Chrome/126.0.0.0 Safari/537.36 Edg/126.0.0.0" etag="i_uqudHoe6uGWSzIy6vu" version="24.7.1" type="github">
  <diagram name="Page-1" id="1KDoUEigHItMvS4O2UEX">
    <mxGraphModel dx="1386" dy="785" grid="1" gridSize="10" guides="1" tooltips="1" connect="1" arrows="1" fold="1" page="1" pageScale="1" pageWidth="850" pageHeight="1100" math="0" shadow="0">
      <root>
        <mxCell id="0" />
        <mxCell id="1" parent="0" />
        <mxCell id="nEo77fs1S5JX71K0WDUW-50" value="APU" style="rounded=0;whiteSpace=wrap;html=1;verticalAlign=top;" parent="1" vertex="1">
          <mxGeometry x="513" y="10" width="330" height="280" as="geometry" />
        </mxCell>
        <mxCell id="nEo77fs1S5JX71K0WDUW-41" value="IRQ" style="edgeStyle=orthogonalEdgeStyle;rounded=0;orthogonalLoop=1;jettySize=auto;html=1;exitX=1;exitY=0.25;exitDx=0;exitDy=0;entryX=0;entryY=0.5;entryDx=0;entryDy=0;" parent="1" source="nEo77fs1S5JX71K0WDUW-32" target="nEo77fs1S5JX71K0WDUW-12" edge="1">
          <mxGeometry relative="1" as="geometry">
            <Array as="points">
              <mxPoint x="270" y="215" />
            </Array>
          </mxGeometry>
        </mxCell>
        <mxCell id="nEo77fs1S5JX71K0WDUW-32" value="I/O peripherals" style="rounded=0;whiteSpace=wrap;html=1;horizontal=1;verticalAlign=top;" parent="1" vertex="1">
          <mxGeometry x="190" y="80" width="80" height="340" as="geometry" />
        </mxCell>
        <mxCell id="nEo77fs1S5JX71K0WDUW-1" value="Multiplexed IO" style="rounded=0;whiteSpace=wrap;html=1;horizontal=0;" parent="1" vertex="1">
          <mxGeometry x="120" y="150" width="40" height="240" as="geometry" />
        </mxCell>
        <mxCell id="nEo77fs1S5JX71K0WDUW-2" value="USB" style="rounded=0;whiteSpace=wrap;html=1;" parent="1" vertex="1">
          <mxGeometry x="200" y="130" width="40" height="40" as="geometry" />
        </mxCell>
        <mxCell id="nEo77fs1S5JX71K0WDUW-3" value="SDO" style="rounded=0;whiteSpace=wrap;html=1;" parent="1" vertex="1">
          <mxGeometry x="200" y="170" width="40" height="40" as="geometry" />
        </mxCell>
        <mxCell id="nEo77fs1S5JX71K0WDUW-4" value="GE" style="rounded=0;whiteSpace=wrap;html=1;" parent="1" vertex="1">
          <mxGeometry x="200" y="210" width="40" height="40" as="geometry" />
        </mxCell>
        <mxCell id="nEo77fs1S5JX71K0WDUW-5" value="GPIO" style="rounded=0;whiteSpace=wrap;html=1;" parent="1" vertex="1">
          <mxGeometry x="200" y="250" width="40" height="40" as="geometry" />
        </mxCell>
        <mxCell id="nEo77fs1S5JX71K0WDUW-6" value="CAN" style="rounded=0;whiteSpace=wrap;html=1;" parent="1" vertex="1">
          <mxGeometry x="200" y="290" width="40" height="40" as="geometry" />
        </mxCell>
        <mxCell id="nEo77fs1S5JX71K0WDUW-7" value="I2C" style="rounded=0;whiteSpace=wrap;html=1;" parent="1" vertex="1">
          <mxGeometry x="200" y="330" width="40" height="40" as="geometry" />
        </mxCell>
        <mxCell id="nEo77fs1S5JX71K0WDUW-8" value="UART" style="rounded=0;whiteSpace=wrap;html=1;" parent="1" vertex="1">
          <mxGeometry x="200" y="370" width="40" height="40" as="geometry" />
        </mxCell>
        <mxCell id="nEo77fs1S5JX71K0WDUW-9" value="Central Interconnect" style="rounded=0;whiteSpace=wrap;html=1;" parent="1" vertex="1">
          <mxGeometry x="320" y="280" width="120" height="160" as="geometry" />
        </mxCell>
        <mxCell id="nEo77fs1S5JX71K0WDUW-10" value="FPU and NEON Engine" style="rounded=0;whiteSpace=wrap;html=1;" parent="1" vertex="1">
          <mxGeometry x="588" y="34" width="120" height="40" as="geometry" />
        </mxCell>
        <mxCell id="nEo77fs1S5JX71K0WDUW-12" value="GIC" style="rounded=0;whiteSpace=wrap;html=1;" parent="1" vertex="1">
          <mxGeometry x="598" y="200" width="40" height="30" as="geometry" />
        </mxCell>
        <mxCell id="nEo77fs1S5JX71K0WDUW-13" value="Snoop control unit and WDT" style="rounded=0;whiteSpace=wrap;html=1;" parent="1" vertex="1">
          <mxGeometry x="648" y="200" width="150" height="30" as="geometry" />
        </mxCell>
        <mxCell id="VEkIuGrPbPvrKiX3VQPa-17" style="edgeStyle=orthogonalEdgeStyle;rounded=0;orthogonalLoop=1;jettySize=auto;html=1;exitX=0.5;exitY=1;exitDx=0;exitDy=0;entryX=0.5;entryY=0;entryDx=0;entryDy=0;" edge="1" parent="1" source="nEo77fs1S5JX71K0WDUW-14" target="nEo77fs1S5JX71K0WDUW-18">
          <mxGeometry relative="1" as="geometry" />
        </mxCell>
        <mxCell id="nEo77fs1S5JX71K0WDUW-14" value="512KB L2 cache and cache controller" style="rounded=0;whiteSpace=wrap;html=1;" parent="1" vertex="1">
          <mxGeometry x="678" y="240" width="120" height="30" as="geometry" />
        </mxCell>
        <mxCell id="nEo77fs1S5JX71K0WDUW-15" value="OCM&lt;div&gt;Interconnect&lt;/div&gt;" style="rounded=0;whiteSpace=wrap;html=1;" parent="1" vertex="1">
          <mxGeometry x="560" y="240" width="68" height="30" as="geometry" />
        </mxCell>
        <mxCell id="nEo77fs1S5JX71K0WDUW-16" value="SRAM" style="rounded=0;whiteSpace=wrap;html=1;" parent="1" vertex="1">
          <mxGeometry x="628" y="240" width="40" height="30" as="geometry" />
        </mxCell>
        <mxCell id="nEo77fs1S5JX71K0WDUW-18" value="DDR memory interface" style="rounded=0;whiteSpace=wrap;html=1;" parent="1" vertex="1">
          <mxGeometry x="678" y="340" width="120" height="40" as="geometry" />
        </mxCell>
        <mxCell id="nEo77fs1S5JX71K0WDUW-19" value="" style="endArrow=none;html=1;rounded=0;" parent="1" edge="1">
          <mxGeometry width="50" height="50" relative="1" as="geometry">
            <mxPoint x="40" y="520" as="sourcePoint" />
            <mxPoint x="840" y="520" as="targetPoint" />
          </mxGeometry>
        </mxCell>
        <mxCell id="nEo77fs1S5JX71K0WDUW-49" style="edgeStyle=orthogonalEdgeStyle;rounded=0;orthogonalLoop=1;jettySize=auto;html=1;exitX=0.5;exitY=0;exitDx=0;exitDy=0;entryX=1;entryY=0.5;entryDx=0;entryDy=0;" parent="1" source="nEo77fs1S5JX71K0WDUW-20" target="nEo77fs1S5JX71K0WDUW-13" edge="1">
          <mxGeometry relative="1" as="geometry" />
        </mxCell>
        <mxCell id="nEo77fs1S5JX71K0WDUW-20" value="ACP" style="rounded=0;whiteSpace=wrap;html=1;" parent="1" vertex="1">
          <mxGeometry x="800" y="520" width="40" height="20" as="geometry" />
        </mxCell>
        <mxCell id="nEo77fs1S5JX71K0WDUW-21" value="HP0" style="rounded=0;whiteSpace=wrap;html=1;" parent="1" vertex="1">
          <mxGeometry x="600" y="520" width="40" height="20" as="geometry" />
        </mxCell>
        <mxCell id="nEo77fs1S5JX71K0WDUW-22" value="HP1" style="rounded=0;whiteSpace=wrap;html=1;" parent="1" vertex="1">
          <mxGeometry x="640" y="520" width="40" height="20" as="geometry" />
        </mxCell>
        <mxCell id="nEo77fs1S5JX71K0WDUW-23" value="GP0" style="rounded=0;whiteSpace=wrap;html=1;" parent="1" vertex="1">
          <mxGeometry x="320" y="520" width="30" height="20" as="geometry" />
        </mxCell>
        <mxCell id="nEo77fs1S5JX71K0WDUW-24" value="GP1" style="rounded=0;whiteSpace=wrap;html=1;" parent="1" vertex="1">
          <mxGeometry x="350" y="520" width="30" height="20" as="geometry" />
        </mxCell>
        <mxCell id="nEo77fs1S5JX71K0WDUW-25" value="XADC&lt;div&gt;12-bit&lt;/div&gt;" style="rounded=0;whiteSpace=wrap;html=1;" parent="1" vertex="1">
          <mxGeometry x="160" y="520" width="40" height="40" as="geometry" />
        </mxCell>
        <mxCell id="nEo77fs1S5JX71K0WDUW-26" value="MMU" style="rounded=0;whiteSpace=wrap;html=1;" parent="1" vertex="1">
          <mxGeometry x="588" y="90" width="60" height="40" as="geometry" />
        </mxCell>
        <mxCell id="nEo77fs1S5JX71K0WDUW-27" value="ARM A9 core" style="rounded=0;whiteSpace=wrap;html=1;" parent="1" vertex="1">
          <mxGeometry x="653" y="90" width="55" height="40" as="geometry" />
        </mxCell>
        <mxCell id="nEo77fs1S5JX71K0WDUW-28" value="I-Cache" style="rounded=0;whiteSpace=wrap;html=1;" parent="1" vertex="1">
          <mxGeometry x="588" y="140" width="60" height="40" as="geometry" />
        </mxCell>
        <mxCell id="nEo77fs1S5JX71K0WDUW-29" value="D-Cache" style="rounded=0;whiteSpace=wrap;html=1;" parent="1" vertex="1">
          <mxGeometry x="653" y="140" width="55" height="40" as="geometry" />
        </mxCell>
        <mxCell id="nEo77fs1S5JX71K0WDUW-30" value="PL to memory interconnect" style="rounded=0;whiteSpace=wrap;html=1;" parent="1" vertex="1">
          <mxGeometry x="600" y="450" width="160" height="30" as="geometry" />
        </mxCell>
        <mxCell id="nEo77fs1S5JX71K0WDUW-31" value="Memory Interfaces" style="rounded=0;whiteSpace=wrap;html=1;" parent="1" vertex="1">
          <mxGeometry x="190" y="430" width="80" height="60" as="geometry" />
        </mxCell>
        <mxCell id="nEo77fs1S5JX71K0WDUW-33" value="HP2" style="rounded=0;whiteSpace=wrap;html=1;" parent="1" vertex="1">
          <mxGeometry x="680" y="520" width="40" height="20" as="geometry" />
        </mxCell>
        <mxCell id="nEo77fs1S5JX71K0WDUW-34" value="HP3" style="rounded=0;whiteSpace=wrap;html=1;" parent="1" vertex="1">
          <mxGeometry x="720" y="520" width="40" height="20" as="geometry" />
        </mxCell>
        <mxCell id="nEo77fs1S5JX71K0WDUW-35" value="SWDT" style="rounded=0;whiteSpace=wrap;html=1;" parent="1" vertex="1">
          <mxGeometry x="518" y="34" width="40" height="30" as="geometry" />
        </mxCell>
        <mxCell id="nEo77fs1S5JX71K0WDUW-36" value="TTC" style="rounded=0;whiteSpace=wrap;html=1;" parent="1" vertex="1">
          <mxGeometry x="518" y="71" width="40" height="30" as="geometry" />
        </mxCell>
        <mxCell id="nEo77fs1S5JX71K0WDUW-37" value="System control registers" style="rounded=0;whiteSpace=wrap;html=1;" parent="1" vertex="1">
          <mxGeometry x="518" y="111" width="60" height="50" as="geometry" />
        </mxCell>
        <mxCell id="nEo77fs1S5JX71K0WDUW-38" value="DMA 8 channel" style="rounded=0;whiteSpace=wrap;html=1;" parent="1" vertex="1">
          <mxGeometry x="518" y="166" width="60" height="30" as="geometry" />
        </mxCell>
        <mxCell id="nEo77fs1S5JX71K0WDUW-39" value="Clock generation" style="rounded=0;whiteSpace=wrap;html=1;" parent="1" vertex="1">
          <mxGeometry x="310" y="40" width="80" height="30" as="geometry" />
        </mxCell>
        <mxCell id="nEo77fs1S5JX71K0WDUW-40" value="Reset" style="rounded=0;whiteSpace=wrap;html=1;" parent="1" vertex="1">
          <mxGeometry x="400" y="40" width="80" height="30" as="geometry" />
        </mxCell>
        <mxCell id="nEo77fs1S5JX71K0WDUW-42" value="" style="edgeStyle=elbowEdgeStyle;elbow=horizontal;endArrow=classic;html=1;curved=0;rounded=0;endSize=8;startSize=8;entryX=0;entryY=0.75;entryDx=0;entryDy=0;" parent="1" target="nEo77fs1S5JX71K0WDUW-12" edge="1">
          <mxGeometry width="50" height="50" relative="1" as="geometry">
            <mxPoint x="480" y="520" as="sourcePoint" />
            <mxPoint x="450" y="310" as="targetPoint" />
            <Array as="points">
              <mxPoint x="480" y="360" />
            </Array>
          </mxGeometry>
        </mxCell>
        <mxCell id="nEo77fs1S5JX71K0WDUW-43" value="FPU and NEON Engine" style="rounded=0;whiteSpace=wrap;html=1;" parent="1" vertex="1">
          <mxGeometry x="718" y="34" width="120" height="40" as="geometry" />
        </mxCell>
        <mxCell id="nEo77fs1S5JX71K0WDUW-44" value="MMU" style="rounded=0;whiteSpace=wrap;html=1;" parent="1" vertex="1">
          <mxGeometry x="718" y="90" width="60" height="40" as="geometry" />
        </mxCell>
        <mxCell id="nEo77fs1S5JX71K0WDUW-45" value="ARM A9 core" style="rounded=0;whiteSpace=wrap;html=1;" parent="1" vertex="1">
          <mxGeometry x="783" y="90" width="55" height="40" as="geometry" />
        </mxCell>
        <mxCell id="nEo77fs1S5JX71K0WDUW-46" value="I-Cache" style="rounded=0;whiteSpace=wrap;html=1;" parent="1" vertex="1">
          <mxGeometry x="718" y="140" width="60" height="40" as="geometry" />
        </mxCell>
        <mxCell id="nEo77fs1S5JX71K0WDUW-47" value="D-Cache" style="rounded=0;whiteSpace=wrap;html=1;" parent="1" vertex="1">
          <mxGeometry x="783" y="140" width="55" height="40" as="geometry" />
        </mxCell>
        <mxCell id="VEkIuGrPbPvrKiX3VQPa-1" style="edgeStyle=orthogonalEdgeStyle;rounded=0;orthogonalLoop=1;jettySize=auto;html=1;exitX=0.5;exitY=0;exitDx=0;exitDy=0;entryX=0.106;entryY=1.033;entryDx=0;entryDy=0;entryPerimeter=0;" edge="1" parent="1" source="nEo77fs1S5JX71K0WDUW-21" target="nEo77fs1S5JX71K0WDUW-30">
          <mxGeometry relative="1" as="geometry" />
        </mxCell>
        <mxCell id="VEkIuGrPbPvrKiX3VQPa-2" style="edgeStyle=orthogonalEdgeStyle;rounded=0;orthogonalLoop=1;jettySize=auto;html=1;exitX=0.5;exitY=0;exitDx=0;exitDy=0;entryX=0.369;entryY=1.067;entryDx=0;entryDy=0;entryPerimeter=0;" edge="1" parent="1" source="nEo77fs1S5JX71K0WDUW-22" target="nEo77fs1S5JX71K0WDUW-30">
          <mxGeometry relative="1" as="geometry" />
        </mxCell>
        <mxCell id="VEkIuGrPbPvrKiX3VQPa-4" style="edgeStyle=orthogonalEdgeStyle;rounded=0;orthogonalLoop=1;jettySize=auto;html=1;exitX=0.5;exitY=0;exitDx=0;exitDy=0;entryX=0.863;entryY=1.1;entryDx=0;entryDy=0;entryPerimeter=0;" edge="1" parent="1" source="nEo77fs1S5JX71K0WDUW-34" target="nEo77fs1S5JX71K0WDUW-30">
          <mxGeometry relative="1" as="geometry" />
        </mxCell>
        <mxCell id="VEkIuGrPbPvrKiX3VQPa-5" style="edgeStyle=orthogonalEdgeStyle;rounded=0;orthogonalLoop=1;jettySize=auto;html=1;exitX=0.5;exitY=0;exitDx=0;exitDy=0;entryX=0.631;entryY=1.1;entryDx=0;entryDy=0;entryPerimeter=0;" edge="1" parent="1" source="nEo77fs1S5JX71K0WDUW-33" target="nEo77fs1S5JX71K0WDUW-30">
          <mxGeometry relative="1" as="geometry" />
        </mxCell>
        <mxCell id="VEkIuGrPbPvrKiX3VQPa-8" value="GP2" style="rounded=0;whiteSpace=wrap;html=1;" vertex="1" parent="1">
          <mxGeometry x="380" y="520" width="30" height="20" as="geometry" />
        </mxCell>
        <mxCell id="VEkIuGrPbPvrKiX3VQPa-9" value="GP3" style="rounded=0;whiteSpace=wrap;html=1;" vertex="1" parent="1">
          <mxGeometry x="410" y="520" width="30" height="20" as="geometry" />
        </mxCell>
        <mxCell id="VEkIuGrPbPvrKiX3VQPa-10" style="edgeStyle=orthogonalEdgeStyle;rounded=0;orthogonalLoop=1;jettySize=auto;html=1;exitX=0.5;exitY=0;exitDx=0;exitDy=0;entryX=0.125;entryY=1;entryDx=0;entryDy=0;entryPerimeter=0;" edge="1" parent="1" source="nEo77fs1S5JX71K0WDUW-23" target="nEo77fs1S5JX71K0WDUW-9">
          <mxGeometry relative="1" as="geometry" />
        </mxCell>
        <mxCell id="VEkIuGrPbPvrKiX3VQPa-11" style="edgeStyle=orthogonalEdgeStyle;rounded=0;orthogonalLoop=1;jettySize=auto;html=1;exitX=0.5;exitY=0;exitDx=0;exitDy=0;entryX=0.375;entryY=0.988;entryDx=0;entryDy=0;entryPerimeter=0;" edge="1" parent="1" source="nEo77fs1S5JX71K0WDUW-24" target="nEo77fs1S5JX71K0WDUW-9">
          <mxGeometry relative="1" as="geometry" />
        </mxCell>
        <mxCell id="VEkIuGrPbPvrKiX3VQPa-12" value="" style="endArrow=classic;html=1;rounded=0;entryX=0.5;entryY=0;entryDx=0;entryDy=0;exitX=0.625;exitY=0.994;exitDx=0;exitDy=0;exitPerimeter=0;" edge="1" parent="1" source="nEo77fs1S5JX71K0WDUW-9" target="VEkIuGrPbPvrKiX3VQPa-8">
          <mxGeometry width="50" height="50" relative="1" as="geometry">
            <mxPoint x="370" y="500" as="sourcePoint" />
            <mxPoint x="420" y="450" as="targetPoint" />
          </mxGeometry>
        </mxCell>
        <mxCell id="VEkIuGrPbPvrKiX3VQPa-13" value="" style="endArrow=classic;html=1;rounded=0;entryX=0.5;entryY=0;entryDx=0;entryDy=0;" edge="1" parent="1" target="VEkIuGrPbPvrKiX3VQPa-9">
          <mxGeometry width="50" height="50" relative="1" as="geometry">
            <mxPoint x="425" y="440" as="sourcePoint" />
            <mxPoint x="480" y="460" as="targetPoint" />
          </mxGeometry>
        </mxCell>
        <mxCell id="VEkIuGrPbPvrKiX3VQPa-14" value="IRQ" style="text;html=1;align=center;verticalAlign=middle;whiteSpace=wrap;rounded=0;" vertex="1" parent="1">
          <mxGeometry x="470" y="525" width="32" height="30" as="geometry" />
        </mxCell>
        <mxCell id="VEkIuGrPbPvrKiX3VQPa-15" value="" style="endArrow=classic;html=1;rounded=0;entryX=0.5;entryY=1;entryDx=0;entryDy=0;" edge="1" parent="1" target="nEo77fs1S5JX71K0WDUW-38">
          <mxGeometry width="50" height="50" relative="1" as="geometry">
            <mxPoint x="548" y="520" as="sourcePoint" />
            <mxPoint x="580" y="360" as="targetPoint" />
          </mxGeometry>
        </mxCell>
        <mxCell id="VEkIuGrPbPvrKiX3VQPa-16" value="DMA sync" style="text;html=1;align=center;verticalAlign=middle;whiteSpace=wrap;rounded=0;" vertex="1" parent="1">
          <mxGeometry x="532" y="525" width="32" height="30" as="geometry" />
        </mxCell>
      </root>
    </mxGraphModel>
  </diagram>
</mxfile>
